<svg width="19" height="19" viewBox="0 0 19 19" fill="none" xmlns="http://www.w3.org/2000/svg">
<path d="M9.73196 6.04267C8.07937 6.04267 6.73073 7.39133 6.73073 9.04395C6.73073 10.6966 8.07937 12.0452 9.73196 12.0452C11.3845 12.0452 12.7332 10.6966 12.7332 9.04395C12.7332 7.39133 11.3845 6.04267 9.73196 6.04267ZM18.7334 9.04395C18.7334 7.80111 18.7446 6.56952 18.6748 5.32894C18.605 3.88796 18.2763 2.6091 17.2226 1.55539C16.1667 0.499422 14.8901 0.172952 13.4491 0.103155C12.2063 0.0333574 10.9748 0.044615 9.73421 0.044615C8.49139 0.044615 7.25983 0.0333574 6.01927 0.103155C4.57832 0.172952 3.29948 0.501674 2.24579 1.55539C1.18984 2.61135 0.863379 3.88796 0.793583 5.32894C0.723787 6.57177 0.735045 7.80336 0.735045 9.04395C0.735045 10.2845 0.723787 11.5184 0.793583 12.759C0.863379 14.1999 1.1921 15.4788 2.24579 16.5325C3.30173 17.5885 4.57832 17.9149 6.01927 17.9847C7.26208 18.0545 8.49364 18.0433 9.73421 18.0433C10.977 18.0433 12.2086 18.0545 13.4491 17.9847C14.8901 17.9149 16.1689 17.5862 17.2226 16.5325C18.2786 15.4765 18.605 14.1999 18.6748 12.759C18.7469 11.5184 18.7334 10.2868 18.7334 9.04395ZM9.73196 13.6618C7.17653 13.6618 5.11417 11.5994 5.11417 9.04395C5.11417 6.48847 7.17653 4.42607 9.73196 4.42607C12.2874 4.42607 14.3497 6.48847 14.3497 9.04395C14.3497 11.5994 12.2874 13.6618 9.73196 13.6618ZM14.5389 5.31543C13.9422 5.31543 13.4604 4.8336 13.4604 4.23695C13.4604 3.64029 13.9422 3.15847 14.5389 3.15847C15.1355 3.15847 15.6173 3.64029 15.6173 4.23695C15.6175 4.37863 15.5897 4.51895 15.5356 4.64987C15.4815 4.7808 15.402 4.89976 15.3018 4.99994C15.2017 5.10013 15.0827 5.17956 14.9518 5.23369C14.8209 5.28783 14.6805 5.3156 14.5389 5.31543Z" fill="white"/>
</svg>
