<svg width="82" height="35" viewBox="0 0 82 35" fill="none" xmlns="http://www.w3.org/2000/svg">
<g clip-path="url(#clip0_769_7348)">
<path d="M1.22656 27.2223H17.5346V22.6127H7.05856V1.27051H1.22656V27.2223Z" fill="white"/>
<path d="M28.2563 23.6289C25.3043 23.6289 23.6483 21.4511 23.6483 17.8215V17.5311C23.6483 13.9015 25.3763 11.7963 28.2563 11.7963C31.1723 11.7963 32.8643 13.9741 32.8643 17.6037V17.8578C32.8643 21.4511 31.1723 23.6289 28.2563 23.6289ZM28.2203 27.6215C33.8723 27.6215 38.1563 23.8104 38.1563 17.8215V17.5311C38.1563 11.6148 33.9083 7.80371 28.2563 7.80371C22.6043 7.80371 18.3203 11.6874 18.3203 17.64V17.9304C18.3203 23.8467 22.6043 27.6215 28.2203 27.6215Z" fill="white"/>
<path d="M48.9259 34.2274C55.1179 34.2274 58.8259 31.36 58.8619 25.7341V8.23927H53.6779V11.0704C52.5979 9.14667 50.7619 7.80371 47.7019 7.80371C43.0219 7.80371 39.4219 11.6148 39.4219 17.0593V17.3133C39.4219 22.9393 43.0579 26.3874 47.6299 26.3874C50.4019 26.3874 52.6339 24.7178 53.6779 22.8667V25.7341C53.6779 28.7104 52.0939 30.38 48.9259 30.38C46.2619 30.38 45.0739 29.2911 44.7499 27.6215H39.5659C40.0699 31.5415 42.8419 34.2274 48.9259 34.2274ZM49.1779 22.4311C46.5859 22.4311 44.7499 20.4711 44.7499 17.3133V17.023C44.7499 13.9015 46.3699 11.7963 49.2859 11.7963C52.1299 11.7963 53.8219 13.7563 53.8219 16.9867V17.2407C53.8219 20.4711 51.9139 22.4311 49.1779 22.4311Z" fill="white"/>
<path d="M71.1704 23.6289C68.2184 23.6289 66.5624 21.4511 66.5624 17.8215V17.5311C66.5624 13.9015 68.2904 11.7963 71.1704 11.7963C74.0864 11.7963 75.7784 13.9741 75.7784 17.6037V17.8578C75.7784 21.4511 74.0864 23.6289 71.1704 23.6289ZM71.1344 27.6215C76.7864 27.6215 81.0704 23.8104 81.0704 17.8215V17.5311C81.0704 11.6148 76.8224 7.80371 71.1704 7.80371C65.5184 7.80371 61.2344 11.6874 61.2344 17.64V17.9304C61.2344 23.8467 65.5184 27.6215 71.1344 27.6215Z" fill="white"/>
</g>
<defs>
<clipPath id="clip0_769_7348">
<rect width="81" height="35" fill="white" transform="translate(0.5)"/>
</clipPath>
</defs>
</svg>
