<svg width="326" height="82" viewBox="0 0 326 82" fill="none" xmlns="http://www.w3.org/2000/svg">
<path d="M209.053 38.1083C208.951 38.0066 208.884 37.8964 208.85 37.7777C208.816 37.676 208.748 37.5319 208.646 37.3454C208.528 37.1589 208.477 36.9639 208.494 36.7605C208.511 36.5401 208.485 36.2942 208.417 36.023C208.383 35.8704 208.316 35.7093 208.214 35.5398C208.112 35.3702 208.061 35.2176 208.061 35.082C208.027 33.9969 207.993 32.9543 207.96 31.954C207.926 30.9367 207.866 29.8178 207.782 28.5971C207.527 28.8514 207.256 29.1481 206.968 29.4872C206.696 29.8093 206.434 30.1484 206.179 30.5044C205.925 30.8604 205.688 31.2165 205.467 31.5725C205.247 31.9116 205.06 32.2337 204.908 32.5389C204.806 32.7423 204.679 32.9119 204.526 33.0475C204.391 33.1662 204.255 33.2764 204.119 33.3781C204.035 33.4459 203.967 33.5138 203.916 33.5816C203.882 33.6494 203.823 33.6663 203.738 33.6324C203.195 33.4629 202.712 33.1492 202.288 32.6915C201.865 32.2337 201.458 31.7675 201.068 31.2928C200.678 30.8181 200.279 30.3942 199.872 30.0212C199.466 29.6313 199.016 29.4193 198.525 29.3854C198.508 29.8771 198.499 30.4196 198.499 31.013C198.516 31.6064 198.533 32.2168 198.55 32.8441C198.567 33.4714 198.584 34.0987 198.601 34.726C198.618 35.3363 198.643 35.9043 198.677 36.4299V37.676C198.491 37.4556 198.364 37.2521 198.296 37.0656C198.228 36.8622 198.143 36.6333 198.041 36.379C197.974 36.2434 197.88 36.0823 197.762 35.8958C197.643 35.6924 197.567 35.5143 197.533 35.3617C197.363 34.7344 197.245 34.0478 197.177 33.3018C197.109 32.5389 197.075 31.7929 197.075 31.0639C197.075 30.3179 197.092 29.6143 197.126 28.9531C197.16 28.2919 197.194 27.7409 197.228 27.3001C197.245 27.2153 197.27 27.1475 197.304 27.0966C197.355 27.0288 197.423 26.9949 197.507 26.9949C197.575 26.9949 197.626 26.978 197.66 26.944C197.694 26.9101 197.745 26.8847 197.813 26.8678C197.931 26.8678 198.008 26.9356 198.041 27.0712C198.092 27.2068 198.186 27.3933 198.321 27.6307C198.406 27.8172 198.457 27.9359 198.474 27.9867C198.491 28.0376 198.516 28.1393 198.55 28.2919C199.025 28.3258 199.483 28.4784 199.923 28.7497C200.381 29.0209 200.796 29.3515 201.169 29.7415C201.559 30.1314 201.907 30.5383 202.212 30.9622C202.534 31.386 202.797 31.7505 203 32.0557C203.306 31.564 203.636 31.0808 203.992 30.6061C204.365 30.1314 204.747 29.6821 205.137 29.2583C205.527 28.8175 205.908 28.4191 206.281 28.063C206.671 27.69 207.019 27.3594 207.324 27.0712L207.654 26.8678C207.654 26.7999 207.739 26.7067 207.909 26.588C207.943 26.5541 207.926 26.5117 207.858 26.4609C207.807 26.41 207.799 26.3761 207.832 26.3591C207.9 26.3422 207.968 26.3422 208.036 26.3591C208.104 26.3591 208.155 26.3846 208.188 26.4354C208.477 26.8762 208.697 27.3255 208.85 27.7833C209.002 28.2241 209.121 28.6818 209.206 29.1566C209.274 30.2586 209.316 31.3352 209.333 32.3863C209.367 33.4375 209.358 34.4632 209.307 35.4635C209.274 35.9212 209.24 36.3705 209.206 36.8113C209.172 37.2521 209.121 37.6845 209.053 38.1083ZM214.656 29.8941L214.224 30.3264C214.359 30.3094 214.563 30.2755 214.834 30.2247C215.122 30.1568 215.402 30.1229 215.673 30.1229C215.877 30.1568 216.046 30.2247 216.182 30.3264C216.317 30.4281 216.402 30.6231 216.436 30.9113C216.504 31.3182 216.606 31.7336 216.741 32.1574C216.894 32.5643 217.004 32.9712 217.072 33.3781C217.157 33.785 217.157 34.175 217.072 34.548C216.987 34.904 216.758 35.2261 216.385 35.5143C215.995 36.1077 215.563 36.6079 215.088 37.0148C214.63 37.4047 214.147 37.6336 213.639 37.7014C213.3 37.7523 212.927 37.7014 212.52 37.5488C212.113 37.4132 211.816 37.1674 211.63 36.8113C211.579 36.8452 211.536 36.8537 211.502 36.8368C211.469 36.8028 211.435 36.7689 211.401 36.735C211.367 36.7011 211.333 36.6926 211.299 36.7096C211.282 36.7266 211.265 36.7181 211.248 36.6842C211.231 36.6333 211.223 36.5655 211.223 36.4807V36.4299V36.379C211.24 35.7856 211.291 35.1922 211.375 34.5988C211.477 33.9885 211.621 33.4036 211.808 32.8441C212.011 32.2676 212.265 31.7336 212.571 31.2419C212.893 30.7333 213.3 30.284 213.791 29.8941C213.961 29.7923 214.147 29.7584 214.351 29.7923C214.385 29.7923 214.427 29.7923 214.478 29.7923C214.529 29.7923 214.588 29.8262 214.656 29.8941ZM213.791 31.6234C213.69 31.6064 213.63 31.5725 213.613 31.5216C213.596 31.4708 213.596 31.4114 213.613 31.3436C213.647 31.2589 213.681 31.1656 213.715 31.0639C213.766 30.9622 213.791 30.8604 213.791 30.7587C213.435 31.0808 213.155 31.4708 212.952 31.9285C212.766 32.3863 212.63 32.861 212.545 33.3527C212.46 33.8274 212.418 34.2936 212.418 34.7514C212.435 35.2092 212.46 35.6076 212.494 35.9467C212.528 36.2349 212.588 36.4722 212.672 36.6587C212.757 36.8283 212.884 36.93 213.054 36.9639C213.24 37.0148 213.486 36.9639 213.791 36.8113C214.232 36.5909 214.588 36.2857 214.859 35.8958C215.131 35.5059 215.351 35.0905 215.521 34.6497C215.588 34.4123 215.639 34.1326 215.673 33.8104C215.724 33.4714 215.716 33.1577 215.648 32.8695C215.563 32.4796 215.343 32.1998 214.987 32.0303C214.647 31.8438 214.249 31.7081 213.791 31.6234ZM220.531 33.785C220.82 33.4968 221.108 33.1916 221.396 32.8695C221.701 32.5304 222.015 32.2083 222.337 31.9031C222.659 31.5979 222.99 31.3267 223.329 31.0893C223.668 30.835 224.024 30.6316 224.397 30.479C224.482 30.4451 224.558 30.4366 224.626 30.4535C224.711 30.4705 224.795 30.462 224.88 30.4281C225.016 30.4281 225.135 30.4281 225.236 30.4281C225.338 30.4281 225.431 30.462 225.516 30.5298C225.753 30.6824 225.94 30.9028 226.075 31.191C226.228 31.4623 226.355 31.7675 226.457 32.1066C226.525 32.2931 226.559 32.4711 226.559 32.6406C226.576 32.8102 226.626 33.0051 226.711 33.2255C226.813 33.5477 226.923 33.8783 227.042 34.2173C227.177 34.5395 227.228 34.8531 227.194 35.1583C227.177 35.2431 227.152 35.3194 227.118 35.3872C227.084 35.438 227.042 35.5059 226.991 35.5906C226.957 35.6584 226.898 35.7432 226.813 35.8449C226.728 35.9467 226.643 36.023 226.559 36.0738C226.474 36.1416 226.415 36.201 226.381 36.2518C226.364 36.2857 226.287 36.3281 226.152 36.379C225.931 36.0569 225.762 35.7093 225.643 35.3363C225.524 34.9633 225.423 34.5734 225.338 34.1665C225.253 33.7596 225.177 33.3442 225.109 32.9204C225.041 32.4965 224.957 32.0642 224.855 31.6234C224.821 31.5047 224.711 31.4369 224.524 31.4199C224.355 31.403 224.151 31.4623 223.914 31.5979C223.693 31.7166 223.456 31.9116 223.202 32.1829C222.947 32.4541 222.719 32.8017 222.515 33.2255C222.379 33.5307 222.252 33.8528 222.134 34.1919C222.015 34.514 221.879 34.8446 221.727 35.1837C221.591 35.5059 221.422 35.828 221.218 36.1501C221.032 36.4553 220.803 36.735 220.531 36.9893C220.447 37.0741 220.387 37.0826 220.353 37.0148C220.32 36.947 220.235 36.8876 220.099 36.8368C219.997 36.8028 219.938 36.7689 219.921 36.735C219.921 36.7011 219.896 36.5994 219.845 36.4299C219.743 36.0738 219.633 35.6669 219.514 35.2092C219.413 34.7514 219.294 34.2682 219.158 33.7596C219.04 33.251 218.912 32.7423 218.777 32.2337C218.641 31.7081 218.505 31.2165 218.37 30.7587L218.217 30.301C218.251 30.2331 218.31 30.1738 218.395 30.1229C218.497 30.0721 218.599 30.0297 218.7 29.9958C218.802 29.9619 218.912 29.9703 219.031 30.0212C219.15 30.0721 219.243 30.0975 219.311 30.0975C219.497 30.0975 219.658 30.2162 219.794 30.4535C219.947 30.6909 220.074 30.9961 220.175 31.3691C220.277 31.7251 220.353 32.1235 220.404 32.5643C220.472 32.9882 220.515 33.3951 220.531 33.785ZM232.087 28.8768C232.222 29.0124 232.273 29.1226 232.239 29.2074C232.222 29.2922 232.171 29.3261 232.087 29.3091C231.866 29.3091 231.62 29.3346 231.349 29.3854C231.095 29.4193 230.815 29.4533 230.51 29.4872C230.222 29.5041 229.916 29.5041 229.594 29.4872C229.272 29.4702 228.95 29.4109 228.628 29.3091C228.492 29.1735 228.492 29.0548 228.628 28.9531C228.781 28.8344 228.899 28.6649 228.984 28.4445C229.035 28.2919 229.103 28.1902 229.187 28.1393C229.289 28.0715 229.391 28.0291 229.493 28.0122C229.679 28.0122 229.908 28.0545 230.179 28.1393C230.467 28.2071 230.705 28.2495 230.891 28.2665C231.18 28.3004 231.417 28.3512 231.603 28.4191C231.79 28.4699 231.951 28.6225 232.087 28.8768ZM231.552 32.3354C231.654 32.7254 231.731 33.0814 231.781 33.4036C231.849 33.7257 231.892 34.0393 231.909 34.3445C231.942 34.6327 231.959 34.9294 231.959 35.2346C231.976 35.5398 231.985 35.8704 231.985 36.2264C231.985 36.2942 231.942 36.3705 231.858 36.4553C231.79 36.5231 231.739 36.5994 231.705 36.6842C231.637 36.8368 231.578 36.93 231.527 36.9639C231.493 36.9978 231.425 37.0402 231.324 37.0911C231.086 37.1928 230.874 37.3369 230.688 37.5234C230.467 37.2013 230.315 36.8283 230.23 36.4044C230.162 35.9806 230.111 35.5398 230.077 35.082C230.061 34.6242 230.035 34.1665 230.001 33.7087C229.984 33.234 229.925 32.7763 229.823 32.3354C229.772 32.0981 229.789 31.937 229.874 31.8523C229.959 31.7675 230.052 31.7081 230.154 31.6742C230.272 31.6403 230.4 31.6658 230.535 31.7505C230.688 31.8353 230.832 31.9201 230.968 32.0048C231.086 32.0727 231.196 32.115 231.298 32.132C231.417 32.132 231.502 32.1998 231.552 32.3354ZM243.3 31.6234C243.334 31.6573 243.359 31.6742 243.376 31.6742C243.393 31.6742 243.402 31.6912 243.402 31.7251C243.385 31.759 243.342 31.8014 243.275 31.8523C243.224 31.8862 243.122 31.9116 242.969 31.9285C242.919 31.9455 242.851 31.9794 242.766 32.0303C242.681 32.0642 242.613 32.0896 242.563 32.1066C242.105 32.2083 241.562 32.3015 240.935 32.3863C240.325 32.4711 239.689 32.5474 239.028 32.6152C238.994 33.2086 238.977 33.7596 238.977 34.2682C238.994 34.7768 239.019 35.2176 239.053 35.5906C239.087 35.8788 239.223 36.023 239.46 36.023C239.697 36.006 239.943 35.9551 240.197 35.8704C240.265 35.8534 240.443 35.7771 240.732 35.6415C241.037 35.4889 241.384 35.3194 241.774 35.1329C242.181 34.9294 242.605 34.7175 243.046 34.4971C243.487 34.2597 243.885 34.0478 244.241 33.8613C244.241 34.0987 244.114 34.3275 243.86 34.548C243.724 34.6666 243.571 34.7768 243.402 34.8786C243.249 34.9803 243.088 35.0905 242.919 35.2092C242.732 35.3278 242.605 35.455 242.537 35.5906C242.469 35.7263 242.317 35.8704 242.079 36.023C241.639 36.3112 241.164 36.574 240.655 36.8113C240.147 37.0487 239.689 37.2182 239.282 37.3199C239.146 37.3539 239.002 37.3708 238.85 37.3708C238.714 37.3708 238.578 37.3962 238.443 37.4471C238.239 37.5319 238.078 37.5149 237.96 37.3962C237.858 37.2776 237.79 37.108 237.756 36.8876C237.688 36.2603 237.637 35.5906 237.604 34.8786C237.587 34.1665 237.587 33.4459 237.604 32.7169C237.095 32.7508 236.62 32.7678 236.179 32.7678C235.756 32.7508 235.408 32.7169 235.137 32.666C234.882 32.6321 234.645 32.5813 234.425 32.5135C234.221 32.4287 234.035 32.3015 233.865 32.132C233.713 32.132 233.662 32.0642 233.713 31.9285C233.78 31.776 233.831 31.6488 233.865 31.5471C234.221 31.5301 234.738 31.5132 235.416 31.4962C236.112 31.4623 236.858 31.4284 237.654 31.3945C237.722 29.9873 237.841 28.6818 238.01 27.4781C238.18 26.2744 238.383 25.3758 238.621 24.7824C238.621 24.6298 238.68 24.5281 238.799 24.4772C238.934 24.4094 239.07 24.3331 239.206 24.2483C239.273 24.2144 239.341 24.1721 239.409 24.1212C239.494 24.0534 239.604 24.0195 239.74 24.0195C239.892 24.1042 240.003 24.1805 240.07 24.2483C240.138 24.2992 240.172 24.367 240.172 24.4518C240.172 24.5366 240.147 24.6383 240.096 24.757C240.045 24.8756 239.986 25.0282 239.918 25.2147C239.884 25.2656 239.833 25.4775 239.765 25.8505C239.697 26.2235 239.621 26.6982 239.536 27.2746C239.468 27.8341 239.392 28.4784 239.307 29.2074C239.223 29.9195 239.155 30.64 239.104 31.3691C239.663 31.3691 240.197 31.3775 240.706 31.3945C241.215 31.3945 241.664 31.4114 242.054 31.4454L243.3 31.6234ZM248.034 29.8941L247.602 30.3264C247.738 30.3094 247.941 30.2755 248.212 30.2247C248.5 30.1568 248.78 30.1229 249.052 30.1229C249.255 30.1568 249.424 30.2247 249.56 30.3264C249.696 30.4281 249.781 30.6231 249.814 30.9113C249.882 31.3182 249.984 31.7336 250.12 32.1574C250.272 32.5643 250.382 32.9712 250.45 33.3781C250.535 33.785 250.535 34.175 250.45 34.548C250.365 34.904 250.137 35.2261 249.764 35.5143C249.374 36.1077 248.941 36.6079 248.467 37.0148C248.009 37.4047 247.526 37.6336 247.017 37.7014C246.678 37.7523 246.305 37.7014 245.898 37.5488C245.491 37.4132 245.194 37.1674 245.008 36.8113C244.957 36.8452 244.915 36.8537 244.881 36.8368C244.847 36.8028 244.813 36.7689 244.779 36.735C244.745 36.7011 244.711 36.6926 244.677 36.7096C244.66 36.7266 244.643 36.7181 244.626 36.6842C244.61 36.6333 244.601 36.5655 244.601 36.4807V36.4299V36.379C244.618 35.7856 244.669 35.1922 244.754 34.5988C244.855 33.9885 244.999 33.4036 245.186 32.8441C245.389 32.2676 245.644 31.7336 245.949 31.2419C246.271 30.7333 246.678 30.284 247.17 29.8941C247.339 29.7923 247.526 29.7584 247.729 29.7923C247.763 29.7923 247.805 29.7923 247.856 29.7923C247.907 29.7923 247.966 29.8262 248.034 29.8941ZM247.17 31.6234C247.068 31.6064 247.009 31.5725 246.992 31.5216C246.975 31.4708 246.975 31.4114 246.992 31.3436C247.025 31.2589 247.059 31.1656 247.093 31.0639C247.144 30.9622 247.17 30.8604 247.17 30.7587C246.814 31.0808 246.534 31.4708 246.33 31.9285C246.144 32.3863 246.008 32.861 245.923 33.3527C245.839 33.8274 245.796 34.2936 245.796 34.7514C245.813 35.2092 245.839 35.6076 245.873 35.9467C245.907 36.2349 245.966 36.4722 246.051 36.6587C246.135 36.8283 246.263 36.93 246.432 36.9639C246.619 37.0148 246.864 36.9639 247.17 36.8113C247.61 36.5909 247.966 36.2857 248.238 35.8958C248.509 35.5059 248.729 35.0905 248.899 34.6497C248.967 34.4123 249.018 34.1326 249.052 33.8104C249.102 33.4714 249.094 33.1577 249.026 32.8695C248.941 32.4796 248.721 32.1998 248.365 32.0303C248.026 31.8438 247.627 31.7081 247.17 31.6234ZM259.988 29.0294C259.988 29.182 260.013 29.377 260.064 29.6143C260.115 29.8347 260.098 30.0127 260.013 30.1484C259.979 30.1823 259.962 30.2501 259.962 30.3518C259.962 30.4366 259.937 30.4959 259.886 30.5298L259.556 30.3264C259.284 30.1908 258.979 30.1314 258.64 30.1484C258.318 30.1653 257.987 30.2416 257.648 30.3772C257.411 30.479 257.174 30.6231 256.936 30.8096C256.716 30.9791 256.504 31.1741 256.3 31.3945C256.097 31.6149 255.91 31.8438 255.741 32.0811C255.571 32.3185 255.427 32.5474 255.309 32.7678C255.037 33.2594 254.902 33.8528 254.902 34.548C254.919 35.2431 255.173 36.1416 255.665 37.2437C255.665 37.3623 255.58 37.5064 255.41 37.676C255.376 37.7099 255.334 37.7608 255.283 37.8286C255.232 37.8964 255.19 37.9472 255.156 37.9812C255.02 38.0998 254.936 38.2016 254.902 38.2863C254.885 38.3711 254.834 38.4304 254.749 38.4643C254.613 38.5152 254.486 38.3965 254.368 38.1083C254.079 37.5997 253.8 36.9809 253.528 36.2518C253.274 35.5059 253.028 34.7429 252.791 33.963C252.57 33.1831 252.367 32.4372 252.181 31.7251C252.011 30.9961 251.875 30.3857 251.774 29.8941C251.723 29.7584 251.714 29.6313 251.748 29.5126C251.782 29.377 251.833 29.2668 251.901 29.182C251.952 29.1142 252.011 29.0972 252.079 29.1311C252.164 29.165 252.231 29.182 252.282 29.182C252.503 29.182 252.638 29.2244 252.689 29.3091C252.74 29.3939 252.825 29.5041 252.943 29.6397C253.181 29.911 253.367 30.2755 253.503 30.7333C253.639 31.191 253.808 31.7336 254.012 32.3609C254.283 31.9031 254.63 31.4623 255.054 31.0385C255.495 30.6146 255.97 30.2331 256.478 29.8941C256.987 29.538 257.513 29.2498 258.055 29.0294C258.598 28.809 259.123 28.6734 259.632 28.6225C259.734 28.6055 259.818 28.6395 259.886 28.7242C259.971 28.792 260.005 28.8938 259.988 29.0294ZM274.067 40.3463C274.016 40.5497 273.965 40.7192 273.915 40.8549C273.864 41.0075 273.813 41.1431 273.762 41.2618C273.711 41.3804 273.652 41.4907 273.584 41.5924C273.516 41.6941 273.44 41.8213 273.355 41.9738C273.27 42.0417 273.177 42.1688 273.075 42.3553C272.991 42.5588 272.863 42.6944 272.694 42.7622C272.236 42.9487 271.719 43.1098 271.143 43.2454C270.583 43.381 270.117 43.4234 269.744 43.3726C269.71 43.3556 269.668 43.3471 269.617 43.3471C269.583 43.3641 269.557 43.3556 269.54 43.3217C269.456 43.1522 269.473 43.008 269.591 42.8894C269.727 42.7876 269.812 42.669 269.846 42.5333C269.88 42.4486 269.913 42.3468 269.947 42.2282C269.981 42.1264 270.041 42.0417 270.125 41.9738C270.295 41.8891 270.541 41.8043 270.863 41.7195C271.185 41.6517 271.499 41.55 271.804 41.4144C272.126 41.2787 272.414 41.0922 272.668 40.8549C272.94 40.6345 273.118 40.3208 273.203 39.9139C273.304 39.3883 273.389 38.8119 273.457 38.1846C273.525 37.5573 273.576 36.9215 273.609 36.2773C273.66 35.633 273.694 34.9972 273.711 34.3699C273.745 33.7426 273.77 33.1577 273.787 32.6152C273.686 32.8186 273.542 33.056 273.355 33.3273C273.169 33.5816 272.965 33.8359 272.745 34.0902C272.524 34.3445 272.304 34.5734 272.084 34.7768C271.863 34.9803 271.66 35.1329 271.473 35.2346C271.253 35.3533 271.075 35.472 270.939 35.5906C270.804 35.6924 270.668 35.8026 270.532 35.9212C270.431 36.006 270.295 36.006 270.125 35.9212C269.956 35.8365 269.803 35.6839 269.668 35.4635C269.515 35.1922 269.371 34.8616 269.235 34.4717C269.1 34.0648 268.964 33.6409 268.828 33.2001C268.693 32.7423 268.557 32.2761 268.421 31.8014C268.286 31.3097 268.15 30.8435 268.015 30.4027C267.896 30.0806 267.904 29.8517 268.04 29.716C268.159 29.5974 268.294 29.538 268.447 29.538C268.583 29.538 268.659 29.5804 268.676 29.6652C268.71 29.733 268.794 29.7754 268.93 29.7923C269.049 29.8093 269.134 29.8517 269.184 29.9195C269.252 29.9873 269.329 30.0466 269.413 30.0975C269.515 30.1653 269.583 30.2331 269.617 30.301C269.668 30.3688 269.718 30.4874 269.769 30.657C269.854 30.9791 269.922 31.2843 269.973 31.5725C270.041 31.8438 270.1 32.115 270.151 32.3863C270.219 32.6576 270.286 32.9373 270.354 33.2255C270.439 33.4968 270.532 33.7935 270.634 34.1156C271.092 33.8105 271.49 33.4798 271.829 33.1238C272.185 32.7508 272.499 32.3778 272.77 32.0048C273.058 31.6149 273.313 31.2419 273.533 30.8859C273.754 30.5129 273.957 30.1568 274.143 29.8178C274.211 29.716 274.296 29.5719 274.398 29.3854C274.5 29.1989 274.593 29.0633 274.678 28.9785C274.728 28.9277 274.771 28.8768 274.805 28.8259C274.839 28.7581 274.881 28.7073 274.932 28.6734C275 28.7412 275.042 28.8175 275.059 28.9022C275.076 28.987 275.093 29.0803 275.11 29.182C275.144 29.4702 275.118 29.7839 275.034 30.1229C274.966 30.4451 274.932 30.6824 274.932 30.835C274.932 31.5979 274.932 32.3778 274.932 33.1747C274.932 33.9715 274.906 34.7684 274.856 35.5652C274.805 36.362 274.72 37.1589 274.601 37.9557C274.483 38.7695 274.305 39.5664 274.067 40.3463ZM280.096 29.8941L279.664 30.3264C279.8 30.3094 280.003 30.2755 280.274 30.2247C280.563 30.1568 280.842 30.1229 281.114 30.1229C281.317 30.1568 281.487 30.2247 281.622 30.3264C281.758 30.4281 281.843 30.6231 281.877 30.9113C281.944 31.3182 282.046 31.7336 282.182 32.1574C282.334 32.5643 282.444 32.9712 282.512 33.3781C282.597 33.785 282.597 34.175 282.512 34.548C282.428 34.904 282.199 35.2261 281.826 35.5143C281.436 36.1077 281.003 36.6079 280.529 37.0148C280.071 37.4047 279.588 37.6336 279.079 37.7014C278.74 37.7523 278.367 37.7014 277.96 37.5488C277.553 37.4132 277.257 37.1674 277.07 36.8113C277.019 36.8452 276.977 36.8537 276.943 36.8368C276.909 36.8028 276.875 36.7689 276.841 36.735C276.807 36.7011 276.773 36.6926 276.739 36.7096C276.722 36.7266 276.706 36.7181 276.689 36.6842C276.672 36.6333 276.663 36.5655 276.663 36.4807V36.4299V36.379C276.68 35.7856 276.731 35.1922 276.816 34.5988C276.917 33.9885 277.062 33.4036 277.248 32.8441C277.452 32.2676 277.706 31.7336 278.011 31.2419C278.333 30.7333 278.74 30.284 279.232 29.8941C279.401 29.7923 279.588 29.7584 279.791 29.7923C279.825 29.7923 279.867 29.7923 279.918 29.7923C279.969 29.7923 280.029 29.8262 280.096 29.8941ZM279.232 31.6234C279.13 31.6064 279.071 31.5725 279.054 31.5216C279.037 31.4708 279.037 31.4114 279.054 31.3436C279.088 31.2589 279.121 31.1656 279.155 31.0639C279.206 30.9622 279.232 30.8604 279.232 30.7587C278.876 31.0808 278.596 31.4708 278.392 31.9285C278.206 32.3863 278.07 32.861 277.986 33.3527C277.901 33.8274 277.858 34.2936 277.858 34.7514C277.875 35.2092 277.901 35.6076 277.935 35.9467C277.969 36.2349 278.028 36.4722 278.113 36.6587C278.197 36.8283 278.325 36.93 278.494 36.9639C278.681 37.0148 278.927 36.9639 279.232 36.8113C279.672 36.5909 280.029 36.2857 280.3 35.8958C280.571 35.5059 280.791 35.0905 280.961 34.6497C281.029 34.4123 281.08 34.1326 281.114 33.8104C281.164 33.4714 281.156 33.1577 281.088 32.8695C281.003 32.4796 280.783 32.1998 280.427 32.0303C280.088 31.8438 279.689 31.7081 279.232 31.6234ZM290.728 30.4027C290.728 31.5895 290.736 32.6915 290.753 33.7087C290.787 34.726 290.889 35.7263 291.058 36.7096C291.075 36.8113 291.05 36.9215 290.982 37.0402C290.914 37.1589 290.846 37.2606 290.778 37.3454C290.677 37.4641 290.583 37.5743 290.499 37.676C290.414 37.7947 290.329 37.871 290.244 37.9049C290.075 37.9896 289.973 38.0066 289.939 37.9557C289.905 37.9049 289.88 37.837 289.863 37.7523C289.795 37.4301 289.702 36.9978 289.583 36.4553C289.481 35.8958 289.414 35.3363 289.38 34.7768C289.176 35.1159 288.947 35.4635 288.693 35.8195C288.456 36.1586 288.193 36.4722 287.905 36.7605C287.633 37.0487 287.354 37.303 287.065 37.5234C286.777 37.7608 286.498 37.9303 286.226 38.032C286.108 38.0829 286.023 38.0914 285.972 38.0574C285.938 38.0235 285.87 37.9896 285.768 37.9557C285.616 37.8879 285.463 37.8201 285.311 37.7523C285.175 37.7014 285.065 37.6166 284.98 37.498C284.794 37.1758 284.641 36.8622 284.522 36.557C284.336 36.0653 284.217 35.5482 284.166 35.0057C284.132 34.4632 284.132 33.9207 284.166 33.3781C284.2 32.8356 284.26 32.31 284.344 31.8014C284.429 31.2928 284.514 30.8265 284.599 30.4027C284.616 30.3179 284.658 30.267 284.726 30.2501C284.794 30.2162 284.836 30.1568 284.853 30.0721C284.887 29.9364 284.946 29.8432 285.031 29.7923C285.133 29.7415 285.234 29.6991 285.336 29.6652C285.472 29.6313 285.574 29.6058 285.641 29.5889C285.726 29.555 285.836 29.538 285.972 29.538C285.819 30.0297 285.701 30.5892 285.616 31.2165C285.531 31.8438 285.489 32.488 285.489 33.1492C285.506 33.7935 285.565 34.4208 285.667 35.0311C285.785 35.6415 285.955 36.1755 286.175 36.6333C286.498 36.4129 286.811 36.1416 287.116 35.8195C287.438 35.4974 287.735 35.1668 288.006 34.8277C288.278 34.4717 288.515 34.1326 288.718 33.8104C288.939 33.4883 289.1 33.2171 289.202 32.9967C289.303 32.6576 289.363 32.2761 289.38 31.8523C289.414 31.4114 289.431 31.0215 289.431 30.6824C289.414 30.5298 289.422 30.4112 289.456 30.3264C289.507 30.2416 289.558 30.1484 289.609 30.0466C289.642 29.9958 289.659 29.9449 289.659 29.8941C289.676 29.8432 289.71 29.8008 289.761 29.7669C289.795 29.733 289.829 29.6906 289.863 29.6397C289.914 29.5719 289.965 29.538 290.015 29.538C290.117 29.538 290.185 29.5889 290.219 29.6906C290.253 29.7923 290.304 29.8686 290.372 29.9195C290.456 30.0043 290.533 30.0721 290.6 30.1229C290.685 30.1568 290.728 30.2501 290.728 30.4027ZM300.693 29.0294C300.693 29.182 300.718 29.377 300.769 29.6143C300.82 29.8347 300.803 30.0127 300.718 30.1484C300.684 30.1823 300.667 30.2501 300.667 30.3518C300.667 30.4366 300.642 30.4959 300.591 30.5298L300.26 30.3264C299.989 30.1908 299.684 30.1314 299.345 30.1484C299.023 30.1653 298.692 30.2416 298.353 30.3772C298.116 30.479 297.878 30.6231 297.641 30.8096C297.42 30.9791 297.209 31.1741 297.005 31.3945C296.802 31.6149 296.615 31.8438 296.446 32.0811C296.276 32.3185 296.132 32.5474 296.013 32.7678C295.742 33.2594 295.606 33.8528 295.606 34.548C295.623 35.2431 295.878 36.1416 296.369 37.2437C296.369 37.3623 296.285 37.5064 296.115 37.676C296.081 37.7099 296.039 37.7608 295.988 37.8286C295.937 37.8964 295.895 37.9472 295.861 37.9812C295.725 38.0998 295.64 38.2016 295.606 38.2863C295.589 38.3711 295.539 38.4304 295.454 38.4643C295.318 38.5152 295.191 38.3965 295.072 38.1083C294.784 37.5997 294.504 36.9809 294.233 36.2518C293.979 35.5059 293.733 34.7429 293.496 33.963C293.275 33.1831 293.072 32.4372 292.885 31.7251C292.716 30.9961 292.58 30.3857 292.478 29.8941C292.427 29.7584 292.419 29.6313 292.453 29.5126C292.487 29.377 292.538 29.2668 292.605 29.182C292.656 29.1142 292.716 29.0972 292.783 29.1311C292.868 29.165 292.936 29.182 292.987 29.182C293.207 29.182 293.343 29.2244 293.394 29.3091C293.445 29.3939 293.529 29.5041 293.648 29.6397C293.886 29.911 294.072 30.2755 294.208 30.7333C294.343 31.191 294.513 31.7336 294.716 32.3609C294.988 31.9031 295.335 31.4623 295.759 31.0385C296.2 30.6146 296.674 30.2331 297.183 29.8941C297.692 29.538 298.217 29.2498 298.76 29.0294C299.302 28.809 299.828 28.6734 300.337 28.6225C300.438 28.6055 300.523 28.6395 300.591 28.7242C300.676 28.792 300.71 28.8938 300.693 29.0294ZM176.273 52.8941L175.841 53.3264C175.977 53.3094 176.18 53.2755 176.451 53.2247C176.74 53.1568 177.019 53.1229 177.291 53.1229C177.494 53.1568 177.664 53.2247 177.799 53.3264C177.935 53.4281 178.02 53.6231 178.053 53.9113C178.121 54.3182 178.223 54.7336 178.359 55.1574C178.511 55.5643 178.621 55.9712 178.689 56.3781C178.774 56.785 178.774 57.175 178.689 57.548C178.604 57.904 178.376 58.2261 178.003 58.5143C177.613 59.1077 177.18 59.6079 176.706 60.0148C176.248 60.4047 175.765 60.6336 175.256 60.7014C174.917 60.7523 174.544 60.7014 174.137 60.5488C173.73 60.4132 173.433 60.1674 173.247 59.8113C173.196 59.8452 173.154 59.8537 173.12 59.8368C173.086 59.8028 173.052 59.7689 173.018 59.735C172.984 59.7011 172.95 59.6926 172.916 59.7096C172.899 59.7266 172.882 59.7181 172.866 59.6842C172.849 59.6333 172.84 59.5655 172.84 59.4807V59.4299V59.379C172.857 58.7856 172.908 58.1922 172.993 57.5988C173.094 56.9885 173.238 56.4036 173.425 55.8441C173.628 55.2676 173.883 54.7336 174.188 54.2419C174.51 53.7333 174.917 53.284 175.409 52.8941C175.578 52.7923 175.765 52.7584 175.968 52.7923C176.002 52.7923 176.044 52.7923 176.095 52.7923C176.146 52.7923 176.205 52.8262 176.273 52.8941ZM175.409 54.6234C175.307 54.6064 175.248 54.5725 175.231 54.5216C175.214 54.4708 175.214 54.4114 175.231 54.3436C175.265 54.2589 175.298 54.1656 175.332 54.0639C175.383 53.9622 175.409 53.8604 175.409 53.7587C175.053 54.0808 174.773 54.4708 174.569 54.9285C174.383 55.3863 174.247 55.861 174.162 56.3527C174.078 56.8274 174.035 57.2936 174.035 57.7514C174.052 58.2092 174.078 58.6076 174.112 58.9467C174.146 59.2349 174.205 59.4722 174.29 59.6587C174.374 59.8283 174.502 59.93 174.671 59.9639C174.858 60.0148 175.103 59.9639 175.409 59.8113C175.849 59.5909 176.205 59.2857 176.477 58.8958C176.748 58.5059 176.968 58.0905 177.138 57.6497C177.206 57.4123 177.257 57.1326 177.291 56.8104C177.341 56.4714 177.333 56.1577 177.265 55.8695C177.18 55.4796 176.96 55.1998 176.604 55.0303C176.265 54.8438 175.866 54.7081 175.409 54.6234ZM188.227 52.0294C188.227 52.182 188.252 52.377 188.303 52.6143C188.354 52.8347 188.337 53.0127 188.252 53.1484C188.218 53.1823 188.201 53.2501 188.201 53.3518C188.201 53.4366 188.176 53.4959 188.125 53.5298L187.795 53.3264C187.523 53.1908 187.218 53.1314 186.879 53.1484C186.557 53.1653 186.226 53.2416 185.887 53.3772C185.65 53.479 185.413 53.6231 185.175 53.8096C184.955 53.9791 184.743 54.1741 184.539 54.3945C184.336 54.6149 184.149 54.8438 183.98 55.0811C183.81 55.3185 183.666 55.5474 183.548 55.7678C183.276 56.2594 183.141 56.8528 183.141 57.548C183.158 58.2431 183.412 59.1416 183.904 60.2437C183.904 60.3623 183.819 60.5064 183.649 60.676C183.615 60.7099 183.573 60.7608 183.522 60.8286C183.471 60.8964 183.429 60.9472 183.395 60.9812C183.259 61.0998 183.175 61.2016 183.141 61.2863C183.124 61.3711 183.073 61.4304 182.988 61.4643C182.852 61.5152 182.725 61.3965 182.607 61.1083C182.318 60.5997 182.039 59.9809 181.767 59.2518C181.513 58.5059 181.267 57.7429 181.03 56.963C180.809 56.1831 180.606 55.4372 180.42 54.7251C180.25 53.9961 180.114 53.3857 180.013 52.8941C179.962 52.7584 179.953 52.6313 179.987 52.5126C180.021 52.377 180.072 52.2668 180.14 52.182C180.191 52.1142 180.25 52.0972 180.318 52.1311C180.403 52.165 180.47 52.182 180.521 52.182C180.742 52.182 180.877 52.2244 180.928 52.3091C180.979 52.3939 181.064 52.5041 181.182 52.6397C181.42 52.911 181.606 53.2755 181.742 53.7333C181.878 54.191 182.047 54.7336 182.251 55.3609C182.522 54.9031 182.869 54.4623 183.293 54.0385C183.734 53.6146 184.209 53.2331 184.717 52.8941C185.226 52.538 185.752 52.2498 186.294 52.0294C186.837 51.809 187.362 51.6734 187.871 51.6225C187.973 51.6055 188.057 51.6395 188.125 51.7242C188.21 51.792 188.244 51.8938 188.227 52.0294ZM194.543 46.2565C194.543 47.3416 194.644 48.3588 194.848 49.3083C195.051 50.2407 195.221 51.1986 195.357 52.182C195.492 53.1823 195.585 54.1741 195.636 55.1574C195.687 56.1238 195.755 57.0224 195.84 57.8531C195.789 57.9549 195.763 58.0735 195.763 58.2092C195.78 58.3448 195.747 58.455 195.662 58.5398C195.407 58.7771 195.119 59.006 194.797 59.2264C194.475 59.4468 194.119 59.6503 193.729 59.8368C193.593 59.9046 193.458 59.9385 193.322 59.9385C193.186 59.9215 193.051 59.93 192.915 59.9639C192.763 59.9978 192.602 60.0402 192.432 60.0911C192.279 60.1419 192.118 60.1504 191.949 60.1165C191.762 60.0656 191.542 59.9893 191.288 59.8876C191.033 59.7689 190.779 59.6333 190.525 59.4807C190.27 59.3281 190.033 59.1586 189.813 58.9721C189.609 58.7856 189.457 58.5822 189.355 58.3617C189.168 57.3954 189.202 56.5222 189.457 55.7423C189.728 54.9625 190.126 54.2589 190.652 53.6316C190.72 53.5468 190.804 53.4874 190.906 53.4535C191.008 53.4027 191.101 53.3433 191.186 53.2755C191.271 53.2077 191.364 53.1568 191.466 53.1229C191.567 53.0721 191.686 53.0551 191.822 53.0721C192.161 53.106 192.534 53.1908 192.941 53.3264C193.347 53.4451 193.661 53.5214 193.882 53.5553V53.1738C193.882 52.733 193.848 52.2922 193.78 51.8514C193.729 51.3936 193.678 50.9359 193.627 50.4781C193.576 50.0203 193.534 49.5541 193.5 49.0794C193.483 48.5877 193.509 48.0876 193.576 47.579C193.593 47.4433 193.627 47.3077 193.678 47.1721C193.729 47.0364 193.771 46.9008 193.805 46.7652C193.839 46.6804 193.89 46.5871 193.958 46.4854C194.026 46.3667 194.102 46.2904 194.187 46.2565C194.271 46.2226 194.322 46.1718 194.339 46.1039C194.356 46.0192 194.399 45.9853 194.466 46.0022C194.534 46.0192 194.56 46.0446 194.543 46.0785C194.543 46.1124 194.543 46.1718 194.543 46.2565ZM194.39 58.1074C194.407 57.9209 194.407 57.6582 194.39 57.3191C194.39 56.963 194.339 56.5985 194.238 56.2255C194.136 55.8525 193.966 55.4965 193.729 55.1574C193.509 54.8183 193.195 54.564 192.788 54.3945C192.602 54.4114 192.381 54.4454 192.127 54.4962C191.889 54.5301 191.652 54.5979 191.415 54.6997C191.177 54.8014 190.957 54.9455 190.754 55.132C190.55 55.3015 190.389 55.5219 190.27 55.7932C190.169 56.0984 190.169 56.4968 190.27 56.9885C190.372 57.4632 190.643 57.9209 191.084 58.3617C191.338 58.5143 191.61 58.6076 191.898 58.6415C192.186 58.6584 192.474 58.65 192.763 58.6161C193.068 58.5822 193.356 58.5143 193.627 58.4126C193.915 58.3109 194.17 58.2092 194.39 58.1074ZM203.35 52.4109C203.469 52.5295 203.579 52.6652 203.681 52.8178C203.783 52.9534 203.868 53.0975 203.935 53.2501C204.071 53.5722 204.139 53.8943 204.139 54.2165C204.156 54.5216 204.037 54.8946 203.783 55.3354C203.495 55.8102 203.122 56.2086 202.664 56.5307C202.223 56.8528 201.74 57.0563 201.214 57.1411C200.841 57.2089 200.468 57.2089 200.095 57.1411C199.722 57.0563 199.366 56.8867 199.027 56.6324C198.925 56.7172 198.841 56.8444 198.773 57.0139C198.722 57.1665 198.705 57.3106 198.722 57.4462C198.756 57.6836 198.841 57.9464 198.976 58.2346C199.129 58.5059 199.29 58.6924 199.46 58.7941C199.748 58.9128 200.146 58.9212 200.655 58.8195C201.18 58.7178 201.731 58.5652 202.308 58.3617C202.901 58.1413 203.478 57.904 204.037 57.6497C204.614 57.3784 205.105 57.1495 205.512 56.963C205.512 57.0648 205.487 57.1326 205.436 57.1665C205.402 57.2004 205.351 57.2597 205.283 57.3445C205.198 57.4293 205.105 57.531 205.003 57.6497C204.902 57.7684 204.783 57.8701 204.647 57.9549C204.478 58.0566 204.351 58.1922 204.266 58.3617C204.181 58.5143 204.02 58.6584 203.783 58.7941C203.461 58.9636 203.13 59.1416 202.791 59.3281C202.469 59.4977 202.147 59.6587 201.825 59.8113C201.502 59.947 201.172 60.0572 200.833 60.1419C200.511 60.2097 200.189 60.2267 199.866 60.1928C199.646 60.1589 199.46 60.0995 199.307 60.0148C199.171 59.93 199.002 59.8028 198.798 59.6333C198.697 59.5485 198.578 59.4638 198.442 59.379C198.307 59.2942 198.205 59.2095 198.137 59.1247C197.849 58.7008 197.654 58.2515 197.552 57.7768C197.45 57.2852 197.425 56.802 197.476 56.3273C197.544 55.8356 197.671 55.3609 197.857 54.9031C198.044 54.4284 198.29 53.9961 198.595 53.6061C198.764 53.3857 198.968 53.1653 199.205 52.9449C199.46 52.7076 199.731 52.5041 200.019 52.3346C200.324 52.1481 200.638 52.004 200.96 51.9022C201.299 51.8005 201.638 51.7581 201.977 51.7751C202.113 51.792 202.232 51.8344 202.333 51.9022C202.452 51.9531 202.579 52.0124 202.715 52.0803C202.799 52.1142 202.901 52.165 203.02 52.2328C203.156 52.2837 203.266 52.343 203.35 52.4109ZM202.613 53.9113C202.579 53.7587 202.486 53.6231 202.333 53.5044C202.181 53.3857 202.011 53.2925 201.825 53.2247C201.638 53.1399 201.452 53.089 201.265 53.0721C201.079 53.0551 200.943 53.0636 200.858 53.0975C200.723 53.1484 200.562 53.2416 200.375 53.3772C200.205 53.4959 200.036 53.64 199.866 53.8096C199.714 53.9791 199.561 54.1656 199.409 54.3691C199.273 54.5556 199.171 54.7336 199.103 54.9031C199.07 54.954 199.036 55.0387 199.002 55.1574C198.985 55.2592 198.993 55.3354 199.027 55.3863C199.231 55.6406 199.536 55.7678 199.943 55.7678C200.333 55.7678 200.748 55.6745 201.189 55.488C201.647 55.3015 201.969 55.1066 202.155 54.9031C202.172 54.8692 202.206 54.8099 202.257 54.7251C202.325 54.6403 202.384 54.5471 202.435 54.4454C202.486 54.3436 202.528 54.2419 202.562 54.1402C202.613 54.0385 202.63 53.9622 202.613 53.9113ZM213.906 52.0294C213.906 52.182 213.932 52.377 213.983 52.6143C214.034 52.8347 214.017 53.0127 213.932 53.1484C213.898 53.1823 213.881 53.2501 213.881 53.3518C213.881 53.4366 213.856 53.4959 213.805 53.5298L213.474 53.3264C213.203 53.1908 212.898 53.1314 212.559 53.1484C212.236 53.1653 211.906 53.2416 211.567 53.3772C211.329 53.479 211.092 53.6231 210.855 53.8096C210.634 53.9791 210.422 54.1741 210.219 54.3945C210.015 54.6149 209.829 54.8438 209.659 55.0811C209.49 55.3185 209.346 55.5474 209.227 55.7678C208.956 56.2594 208.82 56.8528 208.82 57.548C208.837 58.2431 209.091 59.1416 209.583 60.2437C209.583 60.3623 209.498 60.5064 209.329 60.676C209.295 60.7099 209.252 60.7608 209.202 60.8286C209.151 60.8964 209.108 60.9472 209.074 60.9812C208.939 61.0998 208.854 61.2016 208.82 61.2863C208.803 61.3711 208.752 61.4304 208.668 61.4643C208.532 61.5152 208.405 61.3965 208.286 61.1083C207.998 60.5997 207.718 59.9809 207.447 59.2518C207.193 58.5059 206.947 57.7429 206.709 56.963C206.489 56.1831 206.286 55.4372 206.099 54.7251C205.929 53.9961 205.794 53.3857 205.692 52.8941C205.641 52.7584 205.633 52.6313 205.667 52.5126C205.701 52.377 205.751 52.2668 205.819 52.182C205.87 52.1142 205.929 52.0972 205.997 52.1311C206.082 52.165 206.15 52.182 206.201 52.182C206.421 52.182 206.557 52.2244 206.608 52.3091C206.659 52.3939 206.743 52.5041 206.862 52.6397C207.099 52.911 207.286 53.2755 207.421 53.7333C207.557 54.191 207.727 54.7336 207.93 55.3609C208.201 54.9031 208.549 54.4623 208.973 54.0385C209.414 53.6146 209.888 53.2331 210.397 52.8941C210.906 52.538 211.431 52.2498 211.974 52.0294C212.516 51.809 213.042 51.6734 213.55 51.6225C213.652 51.6055 213.737 51.6395 213.805 51.7242C213.889 51.792 213.923 51.8938 213.906 52.0294ZM221.417 53.3518C221.333 53.6061 221.265 53.8011 221.214 53.9367C221.163 54.0724 221.087 54.0893 220.985 53.9876C220.748 53.7502 220.46 53.4959 220.121 53.2247C219.781 52.9534 219.366 52.7839 218.874 52.716C218.552 52.6821 218.205 52.7245 217.832 52.8432C217.476 52.9449 217.204 53.1738 217.018 53.5298C216.848 53.835 216.823 54.1995 216.942 54.6234C217.043 55.0642 217.264 55.3863 217.603 55.5898C217.959 55.7763 218.349 55.9288 218.773 56.0475C219.213 56.1492 219.654 56.2425 220.095 56.3273C220.553 56.412 220.943 56.5646 221.265 56.785C221.367 56.8359 221.443 56.9207 221.494 57.0393C221.562 57.1411 221.629 57.2343 221.697 57.3191C221.782 57.4208 221.858 57.5056 221.926 57.5734C222.011 57.6412 222.087 57.7429 222.155 57.8786C222.206 57.9803 222.265 58.1074 222.333 58.26C222.401 58.3957 222.418 58.5482 222.384 58.7178C222.333 58.9382 222.121 59.1755 221.748 59.4299C220.934 59.9554 220.078 60.3708 219.18 60.676C218.281 60.9981 217.332 61.0574 216.331 60.854C216.213 60.8201 216.077 60.7014 215.924 60.498C215.772 60.3115 215.645 60.1843 215.543 60.1165C215.272 59.9639 215.085 59.7689 214.983 59.5316C214.848 59.0908 214.78 58.6076 214.78 58.082C214.78 57.9125 214.805 57.8362 214.856 57.8531C214.924 57.8531 214.983 57.8531 215.034 57.8531C215.136 57.8531 215.246 57.9209 215.365 58.0566C215.501 58.1922 215.636 58.3533 215.772 58.5398C215.924 58.7093 216.06 58.8704 216.179 59.023C216.314 59.1586 216.425 59.2264 216.509 59.2264C216.798 59.362 217.145 59.4383 217.552 59.4553C217.959 59.4722 218.366 59.4383 218.773 59.3536C219.197 59.2518 219.586 59.0993 219.942 58.8958C220.315 58.6754 220.612 58.4041 220.833 58.082C220.833 57.9972 220.731 57.8955 220.527 57.7768C220.341 57.6582 220.095 57.531 219.79 57.3954C219.485 57.2428 219.146 57.0902 218.773 56.9376C218.417 56.785 218.069 56.624 217.73 56.4544C217.408 56.2849 217.12 56.1069 216.865 55.9204C216.628 55.7339 216.467 55.5474 216.382 55.3609C216.331 55.2252 216.272 55.0896 216.204 54.954C216.136 54.8014 216.094 54.6912 216.077 54.6234C215.992 54.2504 215.975 53.8943 216.026 53.5553C216.077 53.1992 216.179 52.8856 216.331 52.6143C216.484 52.343 216.687 52.1226 216.942 51.9531C217.196 51.7666 217.484 51.6479 217.806 51.5971C218.315 51.5293 218.857 51.5293 219.434 51.5971C220.027 51.6479 220.553 51.8429 221.011 52.182C221.146 52.3007 221.239 52.4109 221.29 52.5126C221.358 52.6143 221.409 52.733 221.443 52.8686C221.46 52.9534 221.477 53.0382 221.494 53.1229C221.511 53.1908 221.485 53.267 221.417 53.3518ZM235.916 55.4626C235.73 55.4626 235.552 55.4711 235.382 55.488C235.213 55.488 235.035 55.4965 234.848 55.5135C234.899 55.9373 234.933 56.3866 234.95 56.8613C234.984 57.336 234.984 57.8192 234.95 58.3109C234.916 58.7856 234.848 59.2603 234.746 59.735C234.662 60.1928 234.534 60.6166 234.365 61.0066C234.331 61.0744 234.323 61.1253 234.339 61.1592C234.373 61.21 234.373 61.2694 234.339 61.3372C234.289 61.3711 234.246 61.3965 234.212 61.4135C234.195 61.4304 234.17 61.4559 234.136 61.4898C233.916 61.6254 233.738 61.6932 233.602 61.6932C233.568 61.6932 233.543 61.6593 233.526 61.5915C233.526 61.5237 233.543 61.4559 233.577 61.3881C233.763 60.659 233.805 59.8198 233.704 58.8704C233.619 57.904 233.415 56.785 233.093 55.5135C232.517 55.5135 231.932 55.4541 231.339 55.3354C231.322 55.3354 231.271 55.3354 231.186 55.3354C231.118 55.3354 231.042 55.3354 230.957 55.3354C230.872 55.3185 230.796 55.3015 230.728 55.2846C230.66 55.2507 230.627 55.2083 230.627 55.1574C230.644 55.0557 230.618 54.9879 230.55 54.954C230.499 54.9031 230.474 54.8607 230.474 54.8268C230.457 54.7081 230.465 54.6403 230.499 54.6234C230.55 54.5895 230.618 54.564 230.703 54.5471C230.991 54.4793 231.305 54.4199 231.644 54.3691C232 54.3182 232.373 54.2758 232.763 54.2419C232.729 54.1402 232.712 54.0724 232.712 54.0385C232.508 53.4451 232.356 52.8008 232.254 52.1057C232.152 51.4106 232.11 50.7155 232.127 50.0203C232.161 49.3252 232.254 48.664 232.407 48.0367C232.576 47.3925 232.822 46.833 233.144 46.3583C233.263 46.1887 233.415 46.07 233.602 46.0022C233.687 45.9683 233.772 45.9344 233.856 45.9005C233.958 45.8666 234.051 45.8581 234.136 45.8751C234.475 45.9429 234.78 46.0616 235.052 46.2311C235.323 46.3837 235.569 46.5787 235.789 46.816C236.026 47.0364 236.247 47.2907 236.45 47.579C236.654 47.8502 236.849 48.13 237.035 48.4182C237.188 48.6047 237.188 48.7488 237.035 48.8505C236.883 48.9522 236.747 49.0455 236.628 49.1302C236.493 49.232 236.34 49.2828 236.171 49.2828C236.052 49.2489 235.933 49.1726 235.814 49.054C235.696 48.9353 235.552 48.8336 235.382 48.7488C235.297 48.664 235.187 48.5623 235.052 48.4436C234.916 48.308 234.772 48.1893 234.619 48.0876C234.467 47.9858 234.323 47.9011 234.187 47.8333C234.051 47.7654 233.941 47.7485 233.856 47.7824C233.805 47.8163 233.729 47.918 233.627 48.0876C233.543 48.2571 233.475 48.4097 233.424 48.5453C233.305 48.9183 233.288 49.2659 233.373 49.588C233.577 50.4018 233.78 51.1986 233.983 51.9785C234.187 52.7415 234.39 53.4281 234.594 54.0385C234.594 54.0893 234.602 54.1317 234.619 54.1656C235.28 54.1656 235.925 54.2165 236.552 54.3182C237.196 54.403 237.781 54.5471 238.307 54.7505C238.392 54.7844 238.315 54.8777 238.078 55.0303C237.942 55.115 237.815 55.1574 237.696 55.1574C237.595 55.1405 237.476 55.1574 237.34 55.2083C237.103 55.2931 236.866 55.3524 236.628 55.3863C236.391 55.4202 236.154 55.4456 235.916 55.4626ZM247.483 52.0294C247.483 52.182 247.509 52.377 247.56 52.6143C247.611 52.8347 247.594 53.0127 247.509 53.1484C247.475 53.1823 247.458 53.2501 247.458 53.3518C247.458 53.4366 247.433 53.4959 247.382 53.5298L247.051 53.3264C246.78 53.1908 246.475 53.1314 246.136 53.1484C245.813 53.1653 245.483 53.2416 245.144 53.3772C244.906 53.479 244.669 53.6231 244.432 53.8096C244.211 53.9791 243.999 54.1741 243.796 54.3945C243.592 54.6149 243.406 54.8438 243.236 55.0811C243.067 55.3185 242.923 55.5474 242.804 55.7678C242.533 56.2594 242.397 56.8528 242.397 57.548C242.414 58.2431 242.668 59.1416 243.16 60.2437C243.16 60.3623 243.075 60.5064 242.906 60.676C242.872 60.7099 242.83 60.7608 242.779 60.8286C242.728 60.8964 242.685 60.9472 242.651 60.9812C242.516 61.0998 242.431 61.2016 242.397 61.2863C242.38 61.3711 242.329 61.4304 242.245 61.4643C242.109 61.5152 241.982 61.3965 241.863 61.1083C241.575 60.5997 241.295 59.9809 241.024 59.2518C240.77 58.5059 240.524 57.7429 240.286 56.963C240.066 56.1831 239.863 55.4372 239.676 54.7251C239.507 53.9961 239.371 53.3857 239.269 52.8941C239.218 52.7584 239.21 52.6313 239.244 52.5126C239.278 52.377 239.328 52.2668 239.396 52.182C239.447 52.1142 239.507 52.0972 239.574 52.1311C239.659 52.165 239.727 52.182 239.778 52.182C239.998 52.182 240.134 52.2244 240.185 52.3091C240.236 52.3939 240.32 52.5041 240.439 52.6397C240.676 52.911 240.863 53.2755 240.998 53.7333C241.134 54.191 241.304 54.7336 241.507 55.3609C241.778 54.9031 242.126 54.4623 242.55 54.0385C242.991 53.6146 243.465 53.2331 243.974 52.8941C244.483 52.538 245.008 52.2498 245.551 52.0294C246.093 51.809 246.619 51.6734 247.127 51.6225C247.229 51.6055 247.314 51.6395 247.382 51.7242C247.466 51.792 247.5 51.8938 247.483 52.0294ZM252.07 52.8941L251.638 53.3264C251.773 53.3094 251.977 53.2755 252.248 53.2247C252.536 53.1568 252.816 53.1229 253.087 53.1229C253.291 53.1568 253.46 53.2247 253.596 53.3264C253.731 53.4281 253.816 53.6231 253.85 53.9113C253.918 54.3182 254.02 54.7336 254.155 55.1574C254.308 55.5643 254.418 55.9712 254.486 56.3781C254.571 56.785 254.571 57.175 254.486 57.548C254.401 57.904 254.172 58.2261 253.799 58.5143C253.409 59.1077 252.977 59.6079 252.502 60.0148C252.045 60.4047 251.561 60.6336 251.053 60.7014C250.714 60.7523 250.341 60.7014 249.934 60.5488C249.527 60.4132 249.23 60.1674 249.044 59.8113C248.993 59.8452 248.95 59.8537 248.916 59.8368C248.883 59.8028 248.849 59.7689 248.815 59.735C248.781 59.7011 248.747 59.6926 248.713 59.7096C248.696 59.7266 248.679 59.7181 248.662 59.6842C248.645 59.6333 248.637 59.5655 248.637 59.4807V59.4299V59.379C248.654 58.7856 248.705 58.1922 248.789 57.5988C248.891 56.9885 249.035 56.4036 249.222 55.8441C249.425 55.2676 249.679 54.7336 249.985 54.2419C250.307 53.7333 250.714 53.284 251.205 52.8941C251.375 52.7923 251.561 52.7584 251.765 52.7923C251.799 52.7923 251.841 52.7923 251.892 52.7923C251.943 52.7923 252.002 52.8262 252.07 52.8941ZM251.205 54.6234C251.104 54.6064 251.044 54.5725 251.027 54.5216C251.01 54.4708 251.01 54.4114 251.027 54.3436C251.061 54.2589 251.095 54.1656 251.129 54.0639C251.18 53.9622 251.205 53.8604 251.205 53.7587C250.849 54.0808 250.57 54.4708 250.366 54.9285C250.18 55.3863 250.044 55.861 249.959 56.3527C249.874 56.8274 249.832 57.2936 249.832 57.7514C249.849 58.2092 249.874 58.6076 249.908 58.9467C249.942 59.2349 250.002 59.4722 250.086 59.6587C250.171 59.8283 250.298 59.93 250.468 59.9639C250.654 60.0148 250.9 59.9639 251.205 59.8113C251.646 59.5909 252.002 59.2857 252.273 58.8958C252.545 58.5059 252.765 58.0905 252.935 57.6497C253.002 57.4123 253.053 57.1326 253.087 56.8104C253.138 56.4714 253.13 56.1577 253.062 55.8695C252.977 55.4796 252.757 55.1998 252.401 55.0303C252.061 54.8438 251.663 54.7081 251.205 54.6234ZM256.903 52.4617C257.005 52.9025 257.047 53.3603 257.03 53.835C257.013 54.3097 256.988 54.7929 256.954 55.2846C256.937 55.7593 256.937 56.2425 256.954 56.7342C256.988 57.2089 257.115 57.6582 257.335 58.082C257.725 57.1156 258.259 56.2425 258.937 55.4626C259.616 54.6658 260.336 53.9537 261.099 53.3264C261.201 53.2416 261.302 53.1908 261.404 53.1738C261.523 53.1399 261.633 53.106 261.735 53.0721C261.82 53.0382 261.896 53.0127 261.964 52.9958C262.048 52.9619 262.159 52.9788 262.294 53.0466C262.633 53.2331 262.828 53.5892 262.879 54.1148C262.93 54.6403 262.955 55.3863 262.955 56.3527C263.21 56.0984 263.464 55.8186 263.718 55.5135C263.99 55.1913 264.261 54.8862 264.532 54.5979C264.803 54.3097 265.083 54.0554 265.371 53.835C265.66 53.6146 265.965 53.4535 266.287 53.3518C266.389 53.3179 266.49 53.3179 266.592 53.3518C266.711 53.3688 266.821 53.3772 266.923 53.3772C266.991 53.3772 267.05 53.3688 267.101 53.3518C267.152 53.3179 267.211 53.3094 267.279 53.3264C267.38 53.3433 267.465 53.3942 267.533 53.479C267.618 53.5637 267.677 53.657 267.711 53.7587C267.779 54.013 267.872 54.3691 267.991 54.8268C268.11 55.2676 268.211 55.7254 268.296 56.2001C268.398 56.6579 268.474 57.0902 268.525 57.4971C268.576 57.904 268.576 58.1922 268.525 58.3617C268.491 58.5143 268.449 58.6161 268.398 58.6669C268.364 58.7178 268.279 58.811 268.143 58.9467C268.11 58.9467 268.067 58.9721 268.016 59.023C267.982 59.0738 267.94 59.1247 267.889 59.1755C267.821 59.2434 267.762 59.3112 267.711 59.379C267.491 59.0569 267.321 58.7093 267.202 58.3363C267.084 57.9633 266.982 57.5734 266.897 57.1665C266.813 56.7596 266.736 56.3442 266.668 55.9204C266.601 55.4965 266.516 55.0642 266.414 54.6234C265.922 54.8777 265.532 55.1744 265.244 55.5135C264.973 55.8356 264.753 56.1831 264.583 56.5561C264.414 56.9122 264.261 57.2767 264.125 57.6497C263.99 58.0227 263.82 58.3787 263.617 58.7178C263.43 59.006 263.244 59.2349 263.057 59.4044C262.871 59.574 262.718 59.6503 262.599 59.6333C262.498 59.6164 262.421 59.5231 262.371 59.3536C262.32 59.184 262.252 58.9297 262.167 58.5906C261.998 57.8955 261.837 57.1495 261.684 56.3527C261.548 55.5558 261.396 54.8353 261.226 54.191C260.904 54.2928 260.582 54.4793 260.26 54.7505C259.955 55.0048 259.666 55.31 259.395 55.666C259.124 56.0051 258.878 56.3866 258.658 56.8104C258.454 57.2343 258.302 57.6582 258.2 58.082C258.42 58.5228 258.429 58.8873 258.225 59.1755C258.141 59.3112 258.022 59.4299 257.869 59.5316C257.717 59.6164 257.539 59.7096 257.335 59.8113C257.217 59.93 257.089 59.9724 256.954 59.9385C256.818 59.9046 256.708 59.8283 256.623 59.7096C256.538 59.574 256.487 59.4638 256.471 59.379C256.369 58.8365 256.267 58.277 256.165 57.7005C256.064 57.1071 255.996 56.5138 255.962 55.9204C255.945 55.327 255.97 54.7421 256.038 54.1656C256.106 53.5722 256.25 53.0043 256.471 52.4617C256.504 52.36 256.538 52.3091 256.572 52.3091C256.606 52.3091 256.64 52.3261 256.674 52.36C256.708 52.377 256.742 52.3939 256.776 52.4109C256.81 52.4278 256.827 52.4363 256.827 52.4363C256.844 52.4363 256.869 52.4448 256.903 52.4617ZM278.013 52.4617C278.114 52.9025 278.157 53.3603 278.14 53.835C278.123 54.3097 278.097 54.7929 278.064 55.2846C278.047 55.7593 278.047 56.2425 278.064 56.7342C278.097 57.2089 278.225 57.6582 278.445 58.082C278.835 57.1156 279.369 56.2425 280.047 55.4626C280.725 54.6658 281.446 53.9537 282.209 53.3264C282.311 53.2416 282.412 53.1908 282.514 53.1738C282.633 53.1399 282.743 53.106 282.845 53.0721C282.929 53.0382 283.006 53.0127 283.073 52.9958C283.158 52.9619 283.268 52.9788 283.404 53.0466C283.743 53.2331 283.938 53.5892 283.989 54.1148C284.04 54.6403 284.065 55.3863 284.065 56.3527C284.32 56.0984 284.574 55.8186 284.828 55.5135C285.099 55.1913 285.371 54.8862 285.642 54.5979C285.913 54.3097 286.193 54.0554 286.481 53.835C286.769 53.6146 287.075 53.4535 287.397 53.3518C287.498 53.3179 287.6 53.3179 287.702 53.3518C287.821 53.3688 287.931 53.3772 288.033 53.3772C288.1 53.3772 288.16 53.3688 288.211 53.3518C288.261 53.3179 288.321 53.3094 288.389 53.3264C288.49 53.3433 288.575 53.3942 288.643 53.479C288.728 53.5637 288.787 53.657 288.821 53.7587C288.889 54.013 288.982 54.3691 289.101 54.8268C289.219 55.2676 289.321 55.7254 289.406 56.2001C289.508 56.6579 289.584 57.0902 289.635 57.4971C289.686 57.904 289.686 58.1922 289.635 58.3617C289.601 58.5143 289.558 58.6161 289.508 58.6669C289.474 58.7178 289.389 58.811 289.253 58.9467C289.219 58.9467 289.177 58.9721 289.126 59.023C289.092 59.0738 289.05 59.1247 288.999 59.1755C288.931 59.2434 288.872 59.3112 288.821 59.379C288.601 59.0569 288.431 58.7093 288.312 58.3363C288.194 57.9633 288.092 57.5734 288.007 57.1665C287.922 56.7596 287.846 56.3442 287.778 55.9204C287.71 55.4965 287.626 55.0642 287.524 54.6234C287.032 54.8777 286.642 55.1744 286.354 55.5135C286.083 55.8356 285.862 56.1831 285.693 56.5561C285.523 56.9122 285.371 57.2767 285.235 57.6497C285.099 58.0227 284.93 58.3787 284.727 58.7178C284.54 59.006 284.354 59.2349 284.167 59.4044C283.981 59.574 283.828 59.6503 283.709 59.6333C283.608 59.6164 283.531 59.5231 283.48 59.3536C283.43 59.184 283.362 58.9297 283.277 58.5906C283.107 57.8955 282.946 57.1495 282.794 56.3527C282.658 55.5558 282.506 54.8353 282.336 54.191C282.014 54.2928 281.692 54.4793 281.37 54.7505C281.064 55.0048 280.776 55.31 280.505 55.666C280.234 56.0051 279.988 56.3866 279.767 56.8104C279.564 57.2343 279.411 57.6582 279.31 58.082C279.53 58.5228 279.539 58.8873 279.335 59.1755C279.25 59.3112 279.132 59.4299 278.979 59.5316C278.826 59.6164 278.648 59.7096 278.445 59.8113C278.326 59.93 278.199 59.9724 278.064 59.9385C277.928 59.9046 277.818 59.8283 277.733 59.7096C277.648 59.574 277.597 59.4638 277.58 59.379C277.479 58.8365 277.377 58.277 277.275 57.7005C277.173 57.1071 277.106 56.5138 277.072 55.9204C277.055 55.327 277.08 54.7421 277.148 54.1656C277.216 53.5722 277.36 53.0043 277.58 52.4617C277.614 52.36 277.648 52.3091 277.682 52.3091C277.716 52.3091 277.75 52.3261 277.784 52.36C277.818 52.377 277.852 52.3939 277.886 52.4109C277.919 52.4278 277.936 52.4363 277.936 52.4363C277.953 52.4363 277.979 52.4448 278.013 52.4617ZM294.538 52.8941L294.106 53.3264C294.241 53.3094 294.445 53.2755 294.716 53.2247C295.004 53.1568 295.284 53.1229 295.555 53.1229C295.759 53.1568 295.928 53.2247 296.064 53.3264C296.199 53.4281 296.284 53.6231 296.318 53.9113C296.386 54.3182 296.488 54.7336 296.623 55.1574C296.776 55.5643 296.886 55.9712 296.954 56.3781C297.039 56.785 297.039 57.175 296.954 57.548C296.869 57.904 296.64 58.2261 296.267 58.5143C295.877 59.1077 295.445 59.6079 294.97 60.0148C294.513 60.4047 294.029 60.6336 293.521 60.7014C293.182 60.7523 292.809 60.7014 292.402 60.5488C291.995 60.4132 291.698 60.1674 291.512 59.8113C291.461 59.8452 291.418 59.8537 291.384 59.8368C291.351 59.8028 291.317 59.7689 291.283 59.735C291.249 59.7011 291.215 59.6926 291.181 59.7096C291.164 59.7266 291.147 59.7181 291.13 59.6842C291.113 59.6333 291.105 59.5655 291.105 59.4807V59.4299V59.379C291.122 58.7856 291.173 58.1922 291.257 57.5988C291.359 56.9885 291.503 56.4036 291.69 55.8441C291.893 55.2676 292.147 54.7336 292.453 54.2419C292.775 53.7333 293.182 53.284 293.673 52.8941C293.843 52.7923 294.029 52.7584 294.233 52.7923C294.267 52.7923 294.309 52.7923 294.36 52.7923C294.411 52.7923 294.47 52.8262 294.538 52.8941ZM293.673 54.6234C293.572 54.6064 293.512 54.5725 293.495 54.5216C293.478 54.4708 293.478 54.4114 293.495 54.3436C293.529 54.2589 293.563 54.1656 293.597 54.0639C293.648 53.9622 293.673 53.8604 293.673 53.7587C293.317 54.0808 293.038 54.4708 292.834 54.9285C292.648 55.3863 292.512 55.861 292.427 56.3527C292.342 56.8274 292.3 57.2936 292.3 57.7514C292.317 58.2092 292.342 58.6076 292.376 58.9467C292.41 59.2349 292.47 59.4722 292.554 59.6587C292.639 59.8283 292.766 59.93 292.936 59.9639C293.122 60.0148 293.368 59.9639 293.673 59.8113C294.114 59.5909 294.47 59.2857 294.741 58.8958C295.013 58.5059 295.233 58.0905 295.403 57.6497C295.47 57.4123 295.521 57.1326 295.555 56.8104C295.606 56.4714 295.598 56.1577 295.53 55.8695C295.445 55.4796 295.225 55.1998 294.869 55.0303C294.529 54.8438 294.131 54.7081 293.673 54.6234ZM299.549 47.6807C299.583 47.7146 299.608 47.74 299.625 47.757C299.659 47.7739 299.676 47.8078 299.676 47.8587C299.676 48.3843 299.701 48.9353 299.752 49.5117C299.803 50.0882 299.854 50.6731 299.905 51.2665C299.956 51.8429 299.998 52.4193 300.032 52.9958C300.083 53.5722 300.108 54.1148 300.108 54.6234C300.227 54.4538 300.363 54.2589 300.515 54.0385C300.685 53.8181 300.88 53.6146 301.1 53.4281C301.321 53.2416 301.558 53.089 301.812 52.9703C302.084 52.8347 302.38 52.7584 302.702 52.7415C302.821 52.6228 302.931 52.5635 303.033 52.5635C303.202 52.5465 303.364 52.6058 303.516 52.7415C303.669 52.8601 303.83 53.0043 303.999 53.1738C304.22 53.3942 304.406 53.657 304.559 53.9622C304.711 54.2673 304.813 54.581 304.864 54.9031C304.915 55.2252 304.906 55.5389 304.839 55.8441C304.788 56.1492 304.652 56.412 304.432 56.6324C304.211 57.2767 303.906 57.8192 303.516 58.26C303.126 58.6839 302.711 59.006 302.27 59.2264L300.744 59.9893C300.642 60.0402 300.541 60.108 300.439 60.1928C300.354 60.2606 300.261 60.3199 300.159 60.3708C300.074 60.4047 300.007 60.3878 299.956 60.3199C299.922 60.2691 299.863 60.2267 299.778 60.1928C299.574 60.108 299.447 59.9809 299.396 59.8113C299.345 59.6587 299.312 59.5316 299.295 59.4299C299.278 59.3281 299.252 59.184 299.218 58.9975C299.032 58.1668 298.896 57.2513 298.811 56.251C298.744 55.2507 298.701 54.2589 298.684 53.2755C298.684 52.2752 298.693 51.3173 298.71 50.4018C298.744 49.4693 298.777 48.664 298.811 47.9858C298.811 47.7654 298.82 47.6213 298.837 47.5535C298.871 47.4857 298.93 47.4348 299.015 47.4009C299.049 47.384 299.091 47.367 299.142 47.3501C299.193 47.3331 299.261 47.3416 299.345 47.3755C299.396 47.3925 299.43 47.4348 299.447 47.5027C299.481 47.5535 299.515 47.6129 299.549 47.6807ZM303.999 55.1066C303.999 55.0048 303.948 54.8777 303.847 54.7251C303.762 54.5556 303.652 54.3945 303.516 54.2419C303.397 54.0893 303.262 53.9537 303.109 53.835C302.957 53.7163 302.821 53.64 302.702 53.6061C302.516 53.657 302.278 53.7841 301.99 53.9876C301.702 54.1741 301.465 54.386 301.278 54.6234C300.787 55.2168 300.524 55.8441 300.49 56.5053C300.456 57.1665 300.549 57.8192 300.77 58.4635C300.922 58.4126 301.117 58.3278 301.354 58.2092C301.609 58.0905 301.872 57.9549 302.143 57.8023C302.414 57.6497 302.677 57.4971 302.931 57.3445C303.186 57.175 303.397 57.0224 303.567 56.8867C303.753 56.6663 303.872 56.429 303.923 56.1747C303.974 55.9034 303.999 55.5474 303.999 55.1066ZM309.634 51.8768C309.77 52.0124 309.821 52.1226 309.787 52.2074C309.77 52.2922 309.719 52.3261 309.634 52.3091C309.414 52.3091 309.168 52.3346 308.897 52.3854C308.642 52.4193 308.363 52.4533 308.057 52.4872C307.769 52.5041 307.464 52.5041 307.142 52.4872C306.82 52.4702 306.498 52.4109 306.175 52.3091C306.04 52.1735 306.04 52.0548 306.175 51.9531C306.328 51.8344 306.447 51.6649 306.531 51.4445C306.582 51.2919 306.65 51.1902 306.735 51.1393C306.837 51.0715 306.938 51.0291 307.04 51.0122C307.227 51.0122 307.455 51.0545 307.727 51.1393C308.015 51.2071 308.252 51.2495 308.439 51.2665C308.727 51.3004 308.964 51.3512 309.151 51.4191C309.337 51.4699 309.498 51.6225 309.634 51.8768ZM309.1 55.3354C309.202 55.7254 309.278 56.0814 309.329 56.4036C309.397 56.7257 309.439 57.0393 309.456 57.3445C309.49 57.6327 309.507 57.9294 309.507 58.2346C309.524 58.5398 309.532 58.8704 309.532 59.2264C309.532 59.2942 309.49 59.3705 309.405 59.4553C309.337 59.5231 309.287 59.5994 309.253 59.6842C309.185 59.8368 309.125 59.93 309.075 59.9639C309.041 59.9978 308.973 60.0402 308.871 60.0911C308.634 60.1928 308.422 60.3369 308.235 60.5234C308.015 60.2013 307.862 59.8283 307.778 59.4044C307.71 58.9806 307.659 58.5398 307.625 58.082C307.608 57.6242 307.583 57.1665 307.549 56.7087C307.532 56.234 307.472 55.7763 307.371 55.3354C307.32 55.0981 307.337 54.937 307.422 54.8523C307.506 54.7675 307.6 54.7081 307.701 54.6742C307.82 54.6403 307.947 54.6658 308.083 54.7505C308.235 54.8353 308.379 54.9201 308.515 55.0048C308.634 55.0727 308.744 55.115 308.846 55.132C308.964 55.132 309.049 55.1998 309.1 55.3354ZM313.778 48.1384C313.981 49.054 314.142 49.9695 314.261 50.885C314.38 51.8005 314.49 52.716 314.592 53.6316C314.693 54.5471 314.795 55.4626 314.897 56.3781C315.015 57.2936 315.168 58.2092 315.355 59.1247C315.321 59.3451 315.295 59.5231 315.278 59.6587C315.261 59.7944 315.219 59.8791 315.151 59.913C315.066 59.9639 314.982 60.0232 314.897 60.0911C314.829 60.1419 314.753 60.1843 314.668 60.2182C314.634 60.2352 314.6 60.2606 314.566 60.2945C314.532 60.3454 314.49 60.3793 314.439 60.3962C314.405 60.4132 314.371 60.4132 314.337 60.3962C314.303 60.3793 314.261 60.3284 314.21 60.2437C313.888 59.2773 313.591 58.3024 313.32 57.3191C313.066 56.3357 312.854 55.3439 312.684 54.3436C312.532 53.3433 312.43 52.3346 312.379 51.3173C312.345 50.2831 312.379 49.2235 312.481 48.1384C312.481 47.8841 312.557 47.7231 312.71 47.6552C312.777 47.6213 312.862 47.6468 312.964 47.7315C313.083 47.8163 313.184 47.8756 313.269 47.9096C313.388 47.9604 313.481 47.9943 313.549 48.0113C313.617 48.0113 313.693 48.0537 313.778 48.1384ZM323.18 52.4109C323.298 52.5295 323.409 52.6652 323.51 52.8178C323.612 52.9534 323.697 53.0975 323.765 53.2501C323.9 53.5722 323.968 53.8943 323.968 54.2165C323.985 54.5216 323.866 54.8946 323.612 55.3354C323.324 55.8102 322.951 56.2086 322.493 56.5307C322.052 56.8528 321.569 57.0563 321.044 57.1411C320.671 57.2089 320.298 57.2089 319.925 57.1411C319.552 57.0563 319.196 56.8867 318.856 56.6324C318.755 56.7172 318.67 56.8444 318.602 57.0139C318.551 57.1665 318.534 57.3106 318.551 57.4462C318.585 57.6836 318.67 57.9464 318.806 58.2346C318.958 58.5059 319.119 58.6924 319.289 58.7941C319.577 58.9128 319.975 58.9212 320.484 58.8195C321.01 58.7178 321.561 58.5652 322.137 58.3617C322.73 58.1413 323.307 57.904 323.866 57.6497C324.443 57.3784 324.934 57.1495 325.341 56.963C325.341 57.0648 325.316 57.1326 325.265 57.1665C325.231 57.2004 325.18 57.2597 325.113 57.3445C325.028 57.4293 324.934 57.531 324.833 57.6497C324.731 57.7684 324.612 57.8701 324.477 57.9549C324.307 58.0566 324.18 58.1922 324.095 58.3617C324.011 58.5143 323.849 58.6584 323.612 58.7941C323.29 58.9636 322.959 59.1416 322.62 59.3281C322.298 59.4977 321.976 59.6587 321.654 59.8113C321.332 59.947 321.001 60.0572 320.662 60.1419C320.34 60.2097 320.018 60.2267 319.696 60.1928C319.475 60.1589 319.289 60.0995 319.136 60.0148C319.001 59.93 318.831 59.8028 318.628 59.6333C318.526 59.5485 318.407 59.4638 318.272 59.379C318.136 59.2942 318.034 59.2095 317.966 59.1247C317.678 58.7008 317.483 58.2515 317.381 57.7768C317.28 57.2852 317.254 56.802 317.305 56.3273C317.373 55.8356 317.5 55.3609 317.687 54.9031C317.873 54.4284 318.119 53.9961 318.424 53.6061C318.594 53.3857 318.797 53.1653 319.034 52.9449C319.289 52.7076 319.56 52.5041 319.848 52.3346C320.153 52.1481 320.467 52.004 320.789 51.9022C321.128 51.8005 321.467 51.7581 321.806 51.7751C321.942 51.792 322.061 51.8344 322.163 51.9022C322.281 51.9531 322.408 52.0124 322.544 52.0803C322.629 52.1142 322.73 52.165 322.849 52.2328C322.985 52.2837 323.095 52.343 323.18 52.4109ZM322.442 53.9113C322.408 53.7587 322.315 53.6231 322.163 53.5044C322.01 53.3857 321.84 53.2925 321.654 53.2247C321.467 53.1399 321.281 53.089 321.094 53.0721C320.908 53.0551 320.772 53.0636 320.688 53.0975C320.552 53.1484 320.391 53.2416 320.204 53.3772C320.035 53.4959 319.865 53.64 319.696 53.8096C319.543 53.9791 319.391 54.1656 319.238 54.3691C319.102 54.5556 319.001 54.7336 318.933 54.9031C318.899 54.954 318.865 55.0387 318.831 55.1574C318.814 55.2592 318.823 55.3354 318.856 55.3863C319.06 55.6406 319.365 55.7678 319.772 55.7678C320.162 55.7678 320.577 55.6745 321.018 55.488C321.476 55.3015 321.798 55.1066 321.984 54.9031C322.001 54.8692 322.035 54.8099 322.086 54.7251C322.154 54.6403 322.213 54.5471 322.264 54.4454C322.315 54.3436 322.357 54.2419 322.391 54.1402C322.442 54.0385 322.459 53.9622 322.442 53.9113Z" fill="white"/>
<path d="M153.125 72.9308C150.828 63.8282 151.17 63.0368 145.236 53.7918C138.238 42.8901 126.642 28.622 117.104 21.2007C108.612 14.5934 97.6732 8.83338 86.8258 11.5614C76.0963 14.2598 69.0155 26.9475 66.1368 38.4394C64.0159 46.9062 63.8024 57.8171 69.9415 63.6284C74.5734 68.013 86.1425 73.0541 91.9455 68.0175C95.1552 65.2317 95.7689 58.6122 94.6542 54.6514C93.6076 50.9325 90.766 46.5048 88.4393 44.0927C79.3583 34.6783 67.4768 29.6399 56.0019 25.7537C39.9766 20.3264 22.4535 16.5947 5.58081 20.9577" stroke="white" stroke-width="1.26867" stroke-linecap="round" stroke-dasharray="5.5 5.5"/>
<path d="M154.522 78.9383L158.867 71.6906L147.274 74.593L154.522 78.9383Z" fill="white"/>
</svg>
