<svg width="20" height="17" viewBox="0 0 20 17" fill="none" xmlns="http://www.w3.org/2000/svg">
<path d="M19.7344 1.93919C19.2053 2.75505 18.5562 3.45054 17.787 4.02564C17.7946 4.17988 17.7984 4.35421 17.7984 4.54863C17.7984 5.62888 17.6465 6.71043 17.3427 7.79329C17.0388 8.87616 16.5747 9.91265 15.9503 10.9028C15.3259 11.8929 14.5821 12.7701 13.7189 13.5343C12.8558 14.2985 11.8182 14.9078 10.6063 15.3623C9.39431 15.8167 8.09541 16.044 6.70959 16.044C4.54678 16.044 2.55504 15.4387 0.734375 14.2281C1.05752 14.2654 1.36745 14.284 1.66415 14.284C3.471 14.284 5.08481 13.707 6.50558 12.5532C5.66313 12.5371 4.90864 12.2683 4.24213 11.7466C3.57562 11.2249 3.11694 10.5583 2.8661 9.74681C3.11404 9.79577 3.35875 9.82025 3.60023 9.82025C3.94782 9.82025 4.28985 9.77325 4.62631 9.67926C3.72725 9.49259 2.98141 9.02838 2.38877 8.28662C1.79616 7.54487 1.49985 6.68875 1.49985 5.71825V5.66823C2.0517 5.98499 2.64033 6.15348 3.26575 6.1737C2.73315 5.80562 2.31088 5.32562 1.99894 4.73372C1.68698 4.14182 1.531 3.50127 1.531 2.81209C1.531 2.08523 1.70669 1.40839 2.05808 0.781561C3.0358 2.02537 4.2205 3.01946 5.61219 3.76383C7.0039 4.50822 8.49694 4.92162 10.0913 5.00406C10.0233 4.71026 9.98924 4.40368 9.98912 4.0843C9.98912 2.96914 10.3698 2.01696 11.1311 1.22775C11.8925 0.438548 12.811 0.0439453 13.8867 0.0439453C15.013 0.0439453 15.9616 0.469071 16.7326 1.31932C17.6136 1.13843 18.4384 0.811231 19.2072 0.337737C18.911 1.30403 18.3403 2.04946 17.4951 2.57403C18.2719 2.47832 19.0184 2.26671 19.7344 1.93919H19.7344Z" fill="white"/>
</svg>
